<?xml version="1.0" encoding="UTF-8" standalone="no"?>
<!-- Église Saint-Martin - Favicon (bell tower only, blue on white) -->
<!-- Based on cleaned designer logo: archive/Logo-St-Martin-clean.svg -->

<svg
   version="1.1"
   viewBox="115 35 75 75"
   id="svg43"
   sodipodi:docname="favicon.svg"
   width="75"
   height="75"
   inkscape:version="1.1 (c68e22c387, 2021-05-23)"
   xmlns:inkscape="http://www.inkscape.org/namespaces/inkscape"
   xmlns:sodipodi="http://sodipodi.sourceforge.net/DTD/sodipodi-0.dtd"
   xmlns="http://www.w3.org/2000/svg"
   xmlns:svg="http://www.w3.org/2000/svg">
  <defs
     id="defs47" />
  <sodipodi:namedview
     id="namedview45"
     pagecolor="#ffffff"
     bordercolor="#666666"
     borderopacity="1.0"
     inkscape:pageshadow="2"
     inkscape:pageopacity="0.0"
     inkscape:pagecheckerboard="0"
     showgrid="false"
     fit-margin-top="0"
     fit-margin-left="0"
     fit-margin-right="0"
     fit-margin-bottom="0"
     inkscape:zoom="4.9885714"
     inkscape:cx="89.504582"
     inkscape:cy="81.285797"
     inkscape:window-width="2350"
     inkscape:window-height="1125"
     inkscape:window-x="2342"
     inkscape:window-y="81"
     inkscape:window-maximized="0"
     inkscape:current-layer="svg43"
     lock-margins="false"
     width="45px" />
  <!-- White circle background -->
  <circle cx="152.5" cy="72.5" r="37.5" fill="#ffffff" />
  <g
     id="church"
     fill="#2b5797"
     style="fill:#2b5797;fill-opacity:1"
     transform="translate(8.3244782,-7.6390838)">
    <!-- Bell tower spire -->
    <polygon
       points="135.19,94.37 142.37,43.32 131.32,92.84 131.83,130.44 135.54,130.82 "
       id="polygon2"
       style="fill:#2b5797;fill-opacity:1" />
    <polygon
       points="142.07,45.42 154.13,93.88 133.77,94.2 133.78,95.45 154.31,95.14 154.64,118.1 155.93,118.08 155.46,93.86 142.37,43.04 "
       id="polygon4"
       style="fill:#2b5797;fill-opacity:1" />
    <!-- Bell tower windows -->
    <path
       d="m 147.18,92.78 -4.95,-0.09 0.04,-0.64 c 0.33,-5.79 1.11,-8.82 2.32,-9.02 0.62,-0.02 2.03,-0.01 2.55,9.07 z m -3.58,-1.33 2.19,0.04 c -0.2,-2.87 -0.63,-5.95 -1.07,-6.98 -0.47,1 -0.93,4.08 -1.12,6.94 z"
       id="path6"
       style="fill:#2b5797;fill-opacity:1" />
    <path
       d="m 134.66,92.71 0.05,0.08 c 0.56,-8.84 1.55,-9.57 2.39,-9.72 0.83,-0.15 1.72,0.87 2.28,9.71 z m 2.47,-8.11 c -0.44,1.17 -0.88,4.1 -1.08,6.85 l 2,-0.01 c -0.2,-2.71 -0.56,-5.61 -0.92,-6.84 z"
       id="path8"
       style="fill:#2b5797;fill-opacity:1" />
    <path
       d="m 150.06,92.77 -0.03,-0.6 c -0.6,-9.18 0.81,-9.41 1.27,-9.49 0.72,-0.03 2.02,0.02 3.19,9.36 l 0.1,0.7 z m 1.44,-8.55 c -0.32,1.13 -0.38,4.35 -0.23,7.29 l 1.83,-0.02 c -0.41,-2.99 -1.07,-6.18 -1.6,-7.27 z"
       id="path10"
       style="fill:#2b5797;fill-opacity:1" />
    <!-- Bell tower body -->
    <path
       d="m 140.9,115.89 h 3.56 c 0,0 0.64,-17.07 -1.87,-16.65 -2.52,0.42 -1.69,16.65 -1.69,16.65 z"
       id="path12"
       style="fill:#2b5797;fill-opacity:1" />
    <path
       d="m 146.69,115.89 h 3.55 c 0,0 0.99,-17.07 -1.52,-16.65 -2.52,0.42 -2.03,16.65 -2.03,16.65 z"
       id="path14"
       style="fill:#2b5797;fill-opacity:1" />
    <!-- Note: Only bell tower shown in favicon (cropped view) -->
  </g>
</svg>
