<?xml version="1.0" encoding="UTF-8"?>
<!-- Église Saint-Martin - Title text (SVG version of header text) -->
<!-- Based on cleaned designer logo: archive/Logo-St-Martin-clean.svg -->
<!-- Text only: LES AMIS DE L'ÉGLISE + SAINT MARTIN + Villar d'Arène -->
<svg version="1.1" id="title" xmlns="http://www.w3.org/2000/svg"
     viewBox="60 210 235 85">

  <style>
    /* Default colors */
    #text-les-amis { fill: #ffffff; }
    #text-saint-martin { fill: #ffffff; }
    #text-villar-darene { fill: #c79a78; } /* Beige by default */
    
    /* Hover: all beige */
    #title:hover #text-les-amis,
    #title:hover #text-saint-martin,
    #title:hover #text-villar-darene {
      fill: #c79a78;
    }
    
    /* Smooth transition */
    #text-les-amis, #text-saint-martin, #text-villar-darene {
      transition: fill 0.3s ease;
    }
  </style>

  <!-- "LES AMIS DE L'ÉGLISE" (uppercase, y: ~214-228) -->
  <g id="text-les-amis">
    <path d="M70.08,225.31h8.44c0.21,0,0.36-0.05,0.46-0.14c0.11-0.09,0.2-0.25,0.27-0.48h0.32v3.44h-0.32
    	c-0.07-0.23-0.16-0.4-0.27-0.48c-0.1-0.1-0.25-0.15-0.46-0.15H66.44v-0.31c0.24-0.06,0.41-0.15,0.5-0.25
    	c0.09-0.09,0.13-0.25,0.13-0.46v-11.27c0-0.2-0.04-0.36-0.13-0.46c-0.1-0.1-0.26-0.19-0.5-0.26v-0.31h4.28v0.31
    	c-0.24,0.06-0.41,0.15-0.5,0.25c-0.1,0.11-0.14,0.27-0.14,0.47V225.31z"/>
    <path d="M84.1,222.87v2.66h7.15c0.21,0,0.38-0.05,0.48-0.13c0.11-0.1,0.2-0.26,0.27-0.5h0.28v3.23H92
    	c-0.06-0.22-0.15-0.4-0.27-0.48c-0.1-0.1-0.27-0.15-0.48-0.15H80.76v-0.27c0.24-0.05,0.4-0.14,0.5-0.25
    	c0.09-0.11,0.15-0.27,0.15-0.48v-8.94c0-0.2-0.05-0.36-0.14-0.46c-0.1-0.1-0.27-0.19-0.51-0.26v-0.27h10.18
    	c0.21,0,0.37-0.05,0.49-0.14c0.11-0.1,0.19-0.25,0.26-0.48h0.26v3.23h-0.26c-0.07-0.24-0.15-0.4-0.26-0.49
    	c-0.12-0.09-0.28-0.13-0.49-0.13H84.1v2.4h4.24c0.2,0,0.37-0.04,0.49-0.14c0.11-0.08,0.2-0.24,0.27-0.48h0.26v3.15H89.1
    	c-0.07-0.23-0.16-0.39-0.27-0.48c-0.11-0.1-0.27-0.14-0.49-0.14H84.1z"/>
    <path d="M104.81,217.56l-1.35,2.55l-0.25-0.13c0-0.21-0.08-0.38-0.21-0.51c-0.37-0.33-0.94-0.61-1.68-0.81
    	c-0.75-0.23-1.49-0.33-2.26-0.33c-0.65,0-1.23,0.09-1.72,0.26c-0.72,0.26-1.1,0.63-1.1,1.11c0,0.32,0.17,0.54,0.53,0.67
    	c0.35,0.13,1.03,0.24,2.02,0.32l1.59,0.11c1.39,0.1,2.45,0.36,3.17,0.78c0.4,0.24,0.73,0.55,0.99,0.94
    	c0.34,0.48,0.5,1.04,0.5,1.65c0,1.11-0.51,1.99-1.55,2.64c-0.98,0.62-2.32,0.92-4,0.92c-1.69,0-3.34-0.34-4.91-1.04
    	c-0.11-0.04-0.2-0.06-0.28-0.06c-0.13,0-0.25,0.08-0.37,0.24l-0.26-0.1l1.16-2.68l0.25,0.1c0,0.04,0,0.07,0,0.08
    	c0,0.17,0.07,0.31,0.21,0.43c0.33,0.29,0.91,0.54,1.74,0.75c0.82,0.2,1.63,0.32,2.43,0.32c0.71,0,1.35-0.09,1.91-0.28
    	c0.7-0.22,1.05-0.58,1.05-1.07c0-0.4-0.24-0.67-0.72-0.83c-0.33-0.1-0.91-0.19-1.74-0.26l-1.58-0.13
    	c-0.86-0.06-1.5-0.15-1.95-0.25c-0.45-0.1-0.85-0.26-1.17-0.47c-0.43-0.25-0.77-0.61-1.01-1.06c-0.24-0.44-0.36-0.94-0.36-1.47
    	c0-1.19,0.53-2.11,1.59-2.74c0.97-0.58,2.16-0.86,3.58-0.86c0.77,0,1.49,0.08,2.15,0.25c0.67,0.17,1.47,0.46,2.39,0.87
    	c0.28,0.13,0.47,0.19,0.58,0.19c0.11,0,0.24-0.07,0.4-0.2L104.81,217.56z"/>
    <path d="M122.12,224.12h-6.25l-0.92,1.87c-0.13,0.27-0.19,0.47-0.19,0.62c0,0.28,0.23,0.48,0.67,0.59v0.31h-4.54v-0.31
    	c0.27-0.05,0.47-0.13,0.61-0.27c0.15-0.13,0.31-0.38,0.49-0.76l5.05-10.25c0.16-0.33,0.24-0.58,0.24-0.78
    	c0-0.3-0.19-0.51-0.58-0.64v-0.31h4.87v0.31c-0.4,0.11-0.6,0.31-0.6,0.59c0,0.18,0.07,0.4,0.19,0.63l5.23,10.27
    	c0.22,0.44,0.42,0.74,0.58,0.9c0.16,0.17,0.39,0.27,0.68,0.31v0.31h-5.06v-0.31c0.44-0.06,0.67-0.27,0.67-0.6
    	c0-0.14-0.07-0.34-0.21-0.61L122.12,224.12z M121.26,222.28l-2.23-4.74l-2.26,4.74H121.26z"/>
    <path d="M135.78,227.51l-4.12-7.19v6.19c0,0.21,0.05,0.35,0.15,0.47c0.08,0.11,0.26,0.19,0.49,0.27v0.27h-3.74v-0.27
    	c0.25-0.05,0.41-0.14,0.51-0.25c0.1-0.11,0.14-0.27,0.14-0.48v-8.94c0-0.2-0.04-0.36-0.14-0.46c-0.1-0.11-0.26-0.2-0.51-0.26
    	v-0.27h4.77v0.27c-0.32,0.09-0.47,0.29-0.47,0.55c0,0.27,0.12,0.6,0.34,0.98l2.81,4.94l2.83-4.88c0.33-0.52,0.48-0.88,0.48-1.1
    	c0-0.25-0.16-0.42-0.49-0.5v-0.27h4.64v0.27c-0.24,0.06-0.4,0.15-0.5,0.26c-0.09,0.1-0.14,0.27-0.14,0.46v8.93
    	c0,0.21,0.06,0.35,0.14,0.47c0.1,0.11,0.26,0.19,0.5,0.26v0.27h-3.98v-0.27c0.23-0.05,0.4-0.14,0.49-0.25
    	c0.11-0.11,0.15-0.27,0.15-0.48v-6.19L135.78,227.51z"/>
    <path d="M148.77,217.57v8.93c0,0.21,0.04,0.35,0.14,0.47c0.09,0.11,0.26,0.19,0.5,0.27v0.27h-3.98v-0.27
    	c0.22-0.05,0.4-0.14,0.5-0.25c0.1-0.11,0.14-0.27,0.14-0.48v-8.94c0-0.2-0.04-0.36-0.14-0.46c-0.1-0.1-0.26-0.19-0.5-0.26v-0.27
    	h3.98v0.27c-0.24,0.06-0.41,0.15-0.5,0.26C148.82,217.21,148.77,217.37,148.77,217.57z"/>
    <path d="M162.23,217.56l-1.36,2.55l-0.24-0.13c0-0.21-0.07-0.38-0.22-0.51c-0.38-0.33-0.94-0.61-1.68-0.81
    	c-0.76-0.23-1.51-0.33-2.27-0.33c-0.64,0-1.23,0.09-1.72,0.26c-0.73,0.26-1.1,0.63-1.1,1.11c0,0.32,0.18,0.54,0.52,0.67
    	c0.35,0.13,1.03,0.24,2.04,0.32l1.59,0.11c1.38,0.1,2.43,0.36,3.17,0.78c0.4,0.24,0.73,0.55,0.99,0.94
    	c0.33,0.48,0.5,1.04,0.5,1.65c0,1.11-0.51,1.99-1.55,2.64c-0.99,0.62-2.32,0.92-4,0.92c-1.7,0-3.34-0.34-4.92-1.04
    	c-0.11-0.04-0.2-0.06-0.27-0.06c-0.14,0-0.25,0.08-0.38,0.24l-0.25-0.1l1.16-2.68l0.25,0.1c0,0.04,0,0.07,0,0.08
    	c0,0.17,0.06,0.31,0.2,0.43c0.34,0.29,0.92,0.54,1.75,0.75c0.82,0.2,1.64,0.32,2.44,0.32c0.71,0,1.35-0.09,1.91-0.28
    	c0.7-0.22,1.05-0.58,1.05-1.07c0-0.4-0.25-0.67-0.73-0.83c-0.32-0.1-0.9-0.19-1.74-0.26l-1.58-0.13
    	c-0.85-0.06-1.5-0.15-1.95-0.25c-0.44-0.1-0.84-0.26-1.18-0.47c-0.43-0.25-0.76-0.61-1.01-1.06c-0.25-0.44-0.36-0.94-0.36-1.47
    	c0-1.19,0.54-2.11,1.59-2.74c0.97-0.58,2.16-0.86,3.58-0.86c0.76,0,1.49,0.08,2.15,0.25c0.68,0.17,1.47,0.46,2.39,0.87
    	c0.28,0.13,0.47,0.19,0.58,0.19c0.1,0,0.24-0.07,0.41-0.2L162.23,217.56z"/>
    <path d="M169.87,226.51v-8.94c0-0.2-0.04-0.36-0.13-0.46c-0.09-0.1-0.26-0.19-0.51-0.26v-0.27h6.61c1.37,0,2.46,0.16,3.26,0.5
    	c1.1,0.48,1.9,1.24,2.4,2.32c0.35,0.76,0.51,1.65,0.51,2.66c0,1.86-0.57,3.28-1.71,4.24c-0.52,0.43-1.13,0.75-1.83,0.93
    	c-0.7,0.19-1.57,0.29-2.62,0.29h-6.61v-0.27c0.24-0.05,0.4-0.14,0.51-0.25C169.82,226.87,169.87,226.71,169.87,226.51z
    	 M172.57,225.53h2.88c1.32,0,2.28-0.29,2.88-0.88c0.62-0.61,0.94-1.48,0.94-2.6c0-1.13-0.31-2.01-0.94-2.62
    	c-0.31-0.3-0.69-0.52-1.14-0.67c-0.46-0.14-1.04-0.21-1.74-0.21h-2.88V225.53z"/>
    <path d="M187.06,222.87v2.66h7.15c0.21,0,0.37-0.05,0.49-0.13c0.11-0.1,0.2-0.26,0.27-0.5h0.28v3.23h-0.28
    	c-0.07-0.22-0.15-0.4-0.26-0.48c-0.12-0.1-0.28-0.15-0.49-0.15h-10.49v-0.27c0.24-0.05,0.41-0.14,0.49-0.25
    	c0.11-0.11,0.15-0.27,0.15-0.48v-8.94c0-0.2-0.04-0.36-0.14-0.46c-0.09-0.1-0.26-0.19-0.5-0.26v-0.27h10.17
    	c0.22,0,0.39-0.05,0.49-0.14c0.12-0.1,0.2-0.25,0.27-0.48h0.28v3.23h-0.28c-0.07-0.24-0.15-0.4-0.27-0.49
    	c-0.1-0.09-0.27-0.13-0.49-0.13h-6.84v2.4h4.25c0.21,0,0.37-0.04,0.49-0.14c0.1-0.08,0.2-0.24,0.28-0.48h0.28v3.15h-0.28
    	c-0.07-0.23-0.15-0.39-0.27-0.48c-0.11-0.1-0.28-0.14-0.49-0.14H187.06z"/>
    <path d="M205.43,225.53h6.3c0.23,0,0.38-0.05,0.49-0.13c0.1-0.1,0.19-0.26,0.27-0.5h0.27v3.23h-0.27
    	c-0.07-0.23-0.16-0.4-0.27-0.48c-0.1-0.1-0.26-0.15-0.49-0.15h-9.64v-0.27c0.23-0.05,0.4-0.14,0.49-0.25
    	c0.1-0.11,0.14-0.27,0.14-0.48v-8.94c0-0.2-0.04-0.36-0.13-0.46c-0.1-0.1-0.28-0.19-0.5-0.26v-0.27h3.98v0.27
    	c-0.24,0.06-0.41,0.15-0.5,0.26c-0.1,0.11-0.14,0.27-0.14,0.46V225.53z"/>
    <path d="M214.91,219.35c0.55-0.35,0.95-0.68,1.19-1.02c0.24-0.33,0.41-0.77,0.51-1.29c-0.32,0.07-0.55,0.11-0.7,0.11
    	c-0.45,0-0.81-0.15-1.07-0.45c-0.27-0.3-0.41-0.69-0.41-1.18c0-0.48,0.15-0.86,0.42-1.15c0.27-0.29,0.64-0.43,1.08-0.43
    	c0.54,0,0.99,0.21,1.31,0.63c0.33,0.41,0.5,0.97,0.5,1.65c0,1.42-0.78,2.68-2.35,3.75L214.91,219.35z"/>
    <path d="M223.58,222.87v2.66h7.15c0.21,0,0.37-0.05,0.48-0.13c0.11-0.1,0.2-0.26,0.27-0.5h0.28v3.23h-0.28
    	c-0.07-0.22-0.15-0.4-0.26-0.48c-0.11-0.1-0.28-0.15-0.49-0.15h-10.49v-0.27c0.24-0.05,0.4-0.14,0.5-0.25
    	c0.09-0.11,0.15-0.27,0.15-0.48v-8.94c0-0.2-0.05-0.36-0.15-0.46c-0.11-0.1-0.26-0.19-0.5-0.26v-0.27h10.18
    	c0.21,0,0.37-0.05,0.49-0.14c0.1-0.1,0.21-0.25,0.27-0.48h0.26v3.23h-0.26c-0.06-0.24-0.16-0.4-0.27-0.49
    	c-0.12-0.09-0.28-0.13-0.49-0.13h-6.84v2.4h4.25c0.2,0,0.37-0.04,0.47-0.14c0.11-0.08,0.21-0.24,0.28-0.48h0.27v3.15h-0.27
    	c-0.07-0.23-0.16-0.39-0.26-0.48c-0.12-0.1-0.28-0.14-0.49-0.14H223.58z M228.75,212.54v0.27c-0.25,0-0.46,0.1-0.59,0.27
    	l-1.43,1.7c-0.03,0.04-0.06,0.09-0.06,0.16c0,0.1,0.07,0.15,0.21,0.15c0.01,0,0.02,0,0.05,0v0.26h-2.18v-0.26
    	c0.15,0,0.27-0.03,0.33-0.07c0.07-0.05,0.13-0.14,0.2-0.28l0.67-1.59c0.02-0.06,0.03-0.11,0.03-0.15c0-0.1-0.09-0.16-0.28-0.18
    	v-0.27H228.75z"/>
    <path d="M243.62,223.29h-2.57c-0.21,0-0.38,0.06-0.49,0.14c-0.11,0.09-0.2,0.25-0.27,0.48h-0.27v-2.9h0.27
    	c0.07,0.23,0.16,0.39,0.27,0.49c0.11,0.09,0.28,0.14,0.49,0.14h5.36v0.28c-0.23,0.06-0.4,0.16-0.5,0.28
    	c-0.1,0.13-0.14,0.3-0.14,0.54v2.3c0,0.21,0.04,0.36,0.14,0.47c0.1,0.11,0.27,0.2,0.5,0.26v0.22c-2.17,1.17-4.34,1.75-6.49,1.75
    	c-1.86,0-3.38-0.42-4.54-1.28c-0.62-0.47-1.12-1.05-1.5-1.73c-0.46-0.83-0.67-1.7-0.67-2.64c0-1.29,0.41-2.43,1.22-3.43
    	c1.27-1.55,3.16-2.33,5.65-2.33c1.11,0,2.35,0.24,3.74,0.7c0.55,0.18,0.88,0.28,0.98,0.28c0.12,0,0.26-0.05,0.41-0.17l0.24,0.13
    	l-1.34,2.75l-0.24-0.11c0-0.03,0-0.05,0-0.06c0-0.24-0.26-0.49-0.74-0.75c-0.92-0.46-1.9-0.7-2.96-0.7
    	c-1.22,0-2.21,0.33-2.99,0.97c-0.81,0.67-1.22,1.58-1.22,2.74c0,1.07,0.37,1.92,1.12,2.58c0.76,0.65,1.83,0.98,3.22,0.98
    	c1.31,0,2.43-0.24,3.33-0.71V223.29z"/>
    <path d="M251.38,225.53h6.31c0.22,0,0.39-0.05,0.49-0.13c0.09-0.1,0.19-0.26,0.26-0.5h0.27v3.23h-0.27
    	c-0.07-0.23-0.15-0.4-0.26-0.48c-0.11-0.1-0.27-0.15-0.49-0.15h-9.64v-0.27c0.24-0.05,0.4-0.14,0.49-0.25
    	c0.1-0.11,0.16-0.27,0.16-0.48v-8.94c0-0.2-0.05-0.36-0.14-0.46c-0.09-0.1-0.26-0.19-0.5-0.26v-0.27h3.99v0.27
    	c-0.24,0.06-0.41,0.15-0.5,0.26c-0.09,0.11-0.15,0.27-0.15,0.46V225.53z"/>
    <path d="M263.21,217.57v8.93c0,0.21,0.05,0.35,0.15,0.47c0.1,0.11,0.26,0.19,0.5,0.27v0.27h-4v-0.27
    	c0.25-0.05,0.41-0.14,0.5-0.25c0.1-0.11,0.16-0.27,0.16-0.48v-8.94c0-0.2-0.05-0.36-0.15-0.46c-0.1-0.1-0.26-0.19-0.51-0.26
    	v-0.27h4v0.27c-0.24,0.06-0.41,0.15-0.5,0.26C263.26,217.21,263.21,217.37,263.21,217.57z"/>
    <path d="M276.67,217.56l-1.36,2.55l-0.23-0.13c0-0.21-0.08-0.38-0.21-0.51c-0.39-0.33-0.95-0.61-1.69-0.81
    	c-0.74-0.23-1.5-0.33-2.26-0.33c-0.65,0-1.22,0.09-1.73,0.26c-0.73,0.26-1.09,0.63-1.09,1.11c0,0.32,0.18,0.54,0.52,0.67
    	c0.34,0.13,1.02,0.24,2.02,0.32l1.59,0.11c1.4,0.1,2.45,0.36,3.17,0.78c0.39,0.24,0.73,0.55,0.99,0.94
    	c0.34,0.48,0.49,1.04,0.49,1.65c0,1.11-0.51,1.99-1.55,2.64c-0.99,0.62-2.32,0.92-4,0.92c-1.71,0-3.35-0.34-4.93-1.04
    	c-0.11-0.04-0.2-0.06-0.27-0.06c-0.13,0-0.26,0.08-0.38,0.24l-0.25-0.1l1.16-2.68l0.25,0.1c0,0.04,0,0.07,0,0.08
    	c0,0.17,0.08,0.31,0.2,0.43c0.34,0.29,0.93,0.54,1.75,0.75c0.82,0.2,1.64,0.32,2.44,0.32c0.71,0,1.35-0.09,1.91-0.28
    	c0.69-0.22,1.05-0.58,1.05-1.07c0-0.4-0.25-0.67-0.73-0.83c-0.32-0.1-0.9-0.19-1.74-0.26l-1.58-0.13
    	c-0.85-0.06-1.5-0.15-1.96-0.25c-0.44-0.1-0.84-0.26-1.17-0.47c-0.43-0.25-0.76-0.61-1.01-1.06c-0.24-0.44-0.36-0.94-0.36-1.47
    	c0-1.19,0.53-2.11,1.59-2.74c0.96-0.58,2.15-0.86,3.57-0.86c0.78,0,1.5,0.08,2.17,0.25c0.67,0.17,1.46,0.46,2.38,0.87
    	c0.28,0.13,0.47,0.19,0.58,0.19c0.11,0,0.25-0.07,0.41-0.2L276.67,217.56z"/>
    <path d="M281.86,222.87v2.66h7.15c0.21,0,0.36-0.05,0.49-0.13c0.1-0.1,0.19-0.26,0.26-0.5h0.27v3.23h-0.27
    	c-0.06-0.22-0.16-0.4-0.26-0.48c-0.13-0.1-0.28-0.15-0.49-0.15h-10.49v-0.27c0.23-0.05,0.4-0.14,0.5-0.25
    	c0.09-0.11,0.14-0.27,0.14-0.48v-8.94c0-0.2-0.04-0.36-0.13-0.46c-0.1-0.1-0.26-0.19-0.5-0.26v-0.27h10.17
    	c0.22,0,0.38-0.05,0.49-0.14c0.11-0.1,0.21-0.25,0.28-0.48h0.26v3.23h-0.26c-0.07-0.24-0.16-0.4-0.28-0.49
    	c-0.1-0.09-0.26-0.13-0.49-0.13h-6.84v2.4h4.25c0.21,0,0.37-0.04,0.47-0.14c0.11-0.08,0.2-0.24,0.27-0.48h0.28v3.15h-0.28
    	c-0.06-0.23-0.15-0.39-0.27-0.48c-0.11-0.1-0.26-0.14-0.48-0.14H281.86z"/>
  </g>

  <!-- "SAINT MARTIN" (uppercase serif, y: ~237-255) -->
  <g id="text-saint-martin">
    <path d="M66.55,249.48l0.36,0.18c0,0.2,0.05,0.4,0.14,0.56c0.17,0.27,0.49,0.54,0.97,0.8c0.5,0.27,1.05,0.51,1.68,0.71
    	c0.63,0.21,1.29,0.37,1.98,0.5c0.68,0.13,1.3,0.2,1.85,0.2c0.4,0,0.92-0.03,1.57-0.09c0.63-0.05,1.26-0.17,1.87-0.36
    	c0.62-0.19,1.17-0.44,1.6-0.76c0.45-0.32,0.69-0.74,0.69-1.27c0-0.53-0.21-0.92-0.62-1.18c-0.43-0.25-0.97-0.43-1.64-0.54
    	c-0.68-0.12-1.45-0.19-2.31-0.23c-0.86-0.03-1.75-0.09-2.65-0.16c-0.9-0.06-1.79-0.18-2.65-0.34c-0.86-0.16-1.64-0.43-2.31-0.81
    	c-0.67-0.39-1.21-0.9-1.64-1.56c-0.41-0.66-0.61-1.51-0.61-2.58c0-0.71,0.16-1.42,0.5-2.1c0.35-0.68,0.88-1.3,1.59-1.83
    	c0.72-0.53,1.62-0.95,2.7-1.29c1.1-0.34,2.37-0.5,3.85-0.5c1.25,0,2.35,0.09,3.26,0.26c0.93,0.19,1.73,0.39,2.4,0.6
    	c0.68,0.2,1.25,0.4,1.71,0.58c0.46,0.2,0.85,0.28,1.16,0.28c0.33,0,0.57-0.07,0.72-0.2l0.43,0.27l-2.46,4.31l-0.36-0.13
    	c-0.05-0.32-0.15-0.58-0.28-0.8c-0.19-0.27-0.5-0.53-0.94-0.8c-0.44-0.27-0.95-0.51-1.55-0.71c-0.58-0.21-1.23-0.38-1.92-0.5
    	c-0.69-0.13-1.37-0.19-2.06-0.19c-0.53,0-1.07,0.04-1.62,0.12c-0.57,0.09-1.08,0.21-1.52,0.36c-0.45,0.16-0.83,0.38-1.11,0.63
    	c-0.31,0.27-0.45,0.6-0.45,0.99c0,0.54,0.21,0.96,0.63,1.24c0.41,0.28,0.95,0.49,1.63,0.63c0.68,0.13,1.45,0.22,2.31,0.28
    	c0.87,0.04,1.75,0.11,2.65,0.17c0.9,0.07,1.79,0.19,2.66,0.36c0.87,0.17,1.63,0.45,2.3,0.83c0.68,0.38,1.23,0.89,1.64,1.54
    	c0.41,0.64,0.62,1.48,0.62,2.51c0,1.19-0.33,2.18-0.96,2.94c-0.67,0.76-1.47,1.34-2.45,1.79c-0.98,0.44-2.03,0.73-3.15,0.88
    	c-1.13,0.15-2.17,0.22-3.15,0.22c-1.36,0-2.48-0.07-3.39-0.22c-0.91-0.15-1.68-0.34-2.29-0.55c-0.6-0.21-1.08-0.42-1.43-0.59
    	c-0.36-0.17-0.66-0.26-0.92-0.26c-0.16,0-0.32,0.1-0.46,0.28l-0.5-0.28L66.55,249.48z"/>
    <path d="M86.36,254.56c0.28-0.05,0.52-0.17,0.69-0.4c0.18-0.22,0.32-0.43,0.42-0.6l5.3-11.23c0.14-0.32,0.24-0.58,0.33-0.77
    	c0.07-0.2,0.12-0.39,0.12-0.57c0-0.14-0.03-0.24-0.09-0.27c-0.05-0.03-0.13-0.08-0.2-0.12v-0.62h5.38v0.62
    	c-0.07,0.04-0.15,0.07-0.23,0.1c-0.09,0.03-0.12,0.12-0.12,0.28c0,0.12,0.04,0.3,0.16,0.49c0.1,0.2,0.21,0.43,0.33,0.67
    	l5.78,11.74c0.11,0.22,0.23,0.36,0.39,0.46c0.14,0.1,0.3,0.16,0.46,0.2v0.62h-5.05v-0.52c0.12,0,0.25-0.03,0.37-0.1
    	c0.13-0.06,0.2-0.2,0.2-0.38c0-0.13-0.03-0.27-0.08-0.38c-0.04-0.12-0.1-0.28-0.17-0.45l-0.98-1.97h-7.61l-0.99,1.87
    	c-0.09,0.17-0.17,0.34-0.24,0.5c-0.05,0.15-0.08,0.28-0.08,0.4c0,0.19,0.06,0.31,0.17,0.35c0.12,0.04,0.29,0.06,0.5,0.06v0.62
    	h-4.77V254.56z M98.25,248.83l-2.88-5.8l-2.53,5.8H98.25z"/>
    <path d="M108.81,254.56c0.38,0,0.63-0.04,0.78-0.11c0.14-0.09,0.21-0.23,0.21-0.41v-12.93c0-0.18-0.07-0.3-0.21-0.39
    	c-0.15-0.09-0.4-0.12-0.78-0.12v-0.62h5.4v0.62c-0.66,0-0.99,0.17-0.99,0.51v12.93c0,0.34,0.33,0.52,0.99,0.52v0.62h-5.4V254.56
    	z"/>
    <path d="M120.34,254.56c0.41,0,0.63-0.17,0.63-0.52v-12.93c0-0.34-0.22-0.51-0.63-0.51v-0.62h5.22v0.62
    	c-0.17,0.03-0.24,0.07-0.24,0.17c0,0.11,0.25,0.43,0.77,0.93l8.54,8.76v-9.36c0-0.34-0.25-0.51-0.72-0.51v-0.62h4.34v0.62
    	c-0.42,0-0.63,0.17-0.63,0.51v12.93c0,0.34,0.21,0.52,0.63,0.52v0.62h-4.63v-0.62c0.17,0,0.26-0.05,0.26-0.17
    	c0-0.09-0.11-0.25-0.33-0.49c-0.23-0.22-0.48-0.49-0.77-0.78l-8.82-9.13v10.06c0,0.34,0.26,0.52,0.76,0.52v0.62h-4.37V254.56z"
    	/>
    <path d="M147.82,254.56c0.12,0,0.24-0.04,0.35-0.11c0.13-0.09,0.19-0.23,0.19-0.41v-11.51h-4.62c-0.19,0-0.37,0.05-0.53,0.15
    	c-0.17,0.09-0.26,0.23-0.26,0.44h-0.63v-3.97h0.63c0,0.32,0.09,0.54,0.26,0.65c0.16,0.13,0.34,0.18,0.53,0.18h12.66
    	c0.18,0,0.37-0.05,0.53-0.18c0.17-0.11,0.25-0.33,0.25-0.65h0.62v3.97h-0.62c0-0.21-0.09-0.35-0.25-0.44
    	c-0.17-0.09-0.36-0.15-0.53-0.15h-4.63v11.51c0,0.34,0.22,0.52,0.64,0.52v0.62h-4.6V254.56z"/>
    <path d="M172.94,254.56c0.19,0,0.36-0.05,0.48-0.15c0.15-0.11,0.22-0.26,0.22-0.47v-15.75c0-0.2-0.07-0.35-0.22-0.43
    	c-0.13-0.08-0.3-0.12-0.48-0.12v-0.63h6.64v0.63c-0.12,0-0.24,0.03-0.37,0.11c-0.14,0.07-0.2,0.16-0.2,0.31
    	c0,0.12,0.05,0.27,0.14,0.45c0.1,0.18,0.2,0.37,0.32,0.59l5.08,8.97l5.11-8.88c0.17-0.31,0.3-0.53,0.39-0.71
    	c0.07-0.17,0.11-0.33,0.11-0.48c0-0.25-0.15-0.37-0.47-0.37v-0.63h6.6v0.63c-0.19,0-0.38,0.04-0.5,0.12
    	c-0.14,0.08-0.21,0.22-0.21,0.43v15.75c0,0.21,0.07,0.36,0.21,0.47c0.13,0.1,0.31,0.15,0.5,0.15v0.62h-5.59v-0.62
    	c0.63,0,0.96-0.2,0.96-0.62v-11.47h-0.07l-7.16,12.71h-0.1l-7-12.75h-0.07v11.51c0,0.42,0.33,0.62,0.99,0.62v0.62h-5.33V254.56z
    	"/>
    <path d="M199.96,254.56c0.28-0.05,0.5-0.17,0.69-0.4c0.17-0.22,0.31-0.43,0.41-0.6l5.29-11.23c0.16-0.32,0.26-0.58,0.34-0.77
    	c0.08-0.2,0.13-0.39,0.13-0.57c0-0.14-0.03-0.24-0.09-0.27c-0.07-0.03-0.13-0.08-0.2-0.12v-0.62h5.37v0.62
    	c-0.07,0.04-0.14,0.07-0.23,0.1c-0.08,0.03-0.12,0.12-0.12,0.28c0,0.12,0.04,0.3,0.15,0.49c0.11,0.2,0.22,0.43,0.34,0.67
    	l5.76,11.74c0.13,0.22,0.25,0.36,0.4,0.46c0.14,0.1,0.31,0.16,0.46,0.2v0.62h-5.06v-0.52c0.12,0,0.25-0.03,0.39-0.1
    	c0.11-0.06,0.18-0.2,0.18-0.38c0-0.13-0.03-0.27-0.08-0.38c-0.04-0.12-0.1-0.28-0.18-0.45l-0.95-1.97h-7.62l-0.98,1.87
    	c-0.11,0.17-0.18,0.34-0.24,0.5c-0.06,0.15-0.08,0.28-0.08,0.4c0,0.19,0.05,0.31,0.16,0.35c0.12,0.04,0.29,0.06,0.5,0.06v0.62
    	h-4.77V254.56z M211.83,248.83l-2.87-5.8l-2.54,5.8H211.83z"/>
    <path d="M231.79,239.99c2.11,0,3.76,0.34,4.97,1.02c1.16,0.68,1.75,1.83,1.75,3.47c0,0.63-0.11,1.17-0.36,1.66
    	c-0.23,0.49-0.54,0.9-0.94,1.26c-0.39,0.36-0.81,0.64-1.3,0.86c-0.47,0.23-0.96,0.4-1.45,0.5l3.47,4.94
    	c0.21,0.25,0.41,0.44,0.62,0.57c0.23,0.13,0.48,0.23,0.75,0.29v0.62h-5.45v-0.62c0.3,0,0.46-0.11,0.46-0.31
    	c0-0.23-0.18-0.59-0.53-1.07l-2.81-4.08h-4.94v4.95c0,0.18,0.07,0.32,0.23,0.41c0.15,0.07,0.31,0.11,0.44,0.11v0.62h-4.73v-0.62
    	c0.42,0,0.65-0.17,0.65-0.52v-12.93c0-0.34-0.23-0.51-0.65-0.51v-0.62H231.79z M231.72,246.55c2.31,0,3.48-0.71,3.48-2.15
    	c0-0.57-0.28-1.02-0.83-1.36c-0.56-0.33-1.45-0.5-2.65-0.5h-5.62v4.01H231.72z"/>
    <path d="M247.58,254.56c0.13,0,0.23-0.04,0.37-0.11c0.1-0.09,0.16-0.23,0.16-0.41v-11.51h-4.61c-0.19,0-0.36,0.05-0.54,0.15
    	c-0.16,0.09-0.24,0.23-0.24,0.44h-0.65v-3.97h0.65c0,0.32,0.08,0.54,0.24,0.65c0.18,0.13,0.35,0.18,0.54,0.18h12.65
    	c0.19,0,0.38-0.05,0.54-0.18c0.16-0.11,0.25-0.33,0.25-0.65h0.63v3.97h-0.63c0-0.21-0.09-0.35-0.25-0.44
    	c-0.16-0.09-0.35-0.15-0.54-0.15h-4.61v11.51c0,0.34,0.21,0.52,0.65,0.52v0.62h-4.59V254.56z"/>
    <path d="M261.92,254.56c0.37,0,0.63-0.04,0.77-0.11c0.15-0.09,0.23-0.23,0.23-0.41v-12.93c0-0.18-0.07-0.3-0.23-0.39
    	c-0.14-0.09-0.4-0.12-0.77-0.12v-0.62h5.4v0.62c-0.68,0-0.99,0.17-0.99,0.51v12.93c0,0.34,0.31,0.52,0.99,0.52v0.62h-5.4V254.56
    	z"/>
    <path d="M273.43,254.56c0.44,0,0.64-0.17,0.64-0.52v-12.93c0-0.34-0.2-0.51-0.64-0.51v-0.62h5.23v0.62
    	c-0.16,0.03-0.24,0.07-0.24,0.17c0,0.11,0.26,0.43,0.77,0.93l8.55,8.76v-9.36c0-0.34-0.25-0.51-0.71-0.51v-0.62h4.33v0.62
    	c-0.42,0-0.64,0.17-0.64,0.51v12.93c0,0.34,0.21,0.52,0.64,0.52v0.62h-4.63v-0.62c0.18,0,0.26-0.05,0.26-0.17
    	c0-0.09-0.11-0.25-0.34-0.49c-0.23-0.22-0.48-0.49-0.77-0.78l-8.82-9.13v10.06c0,0.34,0.26,0.52,0.75,0.52v0.62h-4.38V254.56z"
    	/>
  </g>

  <!-- "Villar d'Arène" (cursive script, y: ~263-288) -->
  <g id="text-villar-darene">
    <path d="M66.22,273.33c1.05-0.86,2.11-1.7,3.17-2.52c1.08-0.82,2.15-1.63,3.26-2.47c0.67-0.52,1.33-1.03,2-1.54
    	c0.67-0.51,1.38-0.98,2.13-1.39c0.37-0.21,0.77-0.4,1.2-0.55c0.43-0.16,0.86-0.21,1.28-0.16c0.62,0.14,0.98,0.46,1.11,0.96
    	c0.12,0.5,0.12,0.99-0.02,1.45c-0.29,0.97-0.74,1.89-1.33,2.74c-0.59,0.86-1.19,1.7-1.8,2.51c-0.71,0.95-1.41,1.9-2.15,2.82
    	c-0.75,0.91-1.44,1.84-2.15,2.78c-0.11,0.16-0.35,0.5-0.72,1.01c-0.38,0.53-0.77,1.12-1.21,1.8c-0.43,0.68-0.86,1.4-1.29,2.17
    	c-0.43,0.76-0.78,1.49-1.04,2.14c-0.26,0.67-0.4,1.22-0.4,1.67c0,0.45,0.22,0.72,0.65,0.77c0.42,0.07,0.93,0,1.5-0.23
    	c0.57-0.25,1.14-0.55,1.71-0.92c0.56-0.37,1.08-0.76,1.58-1.15c0.5-0.39,0.91-0.7,1.2-0.93c1.19-0.93,2.34-1.92,3.43-2.97
    	c1.08-1.03,2.16-2.1,3.23-3.18c2.19-2.29,4.32-4.63,6.36-7.01c2.05-2.37,4.03-4.82,5.93-7.34c0.13-0.2,0.3-0.42,0.48-0.66
    	c0.19-0.23,0.43-0.29,0.77-0.19c0.24,0.05,0.4,0.19,0.47,0.43c0.08,0.23,0.06,0.44-0.08,0.61c-0.43,0.58-0.9,1.12-1.42,1.63
    	c-0.54,0.5-1.02,1.02-1.48,1.52c-1.07,1.21-2.13,2.41-3.14,3.58c-1.03,1.18-2.07,2.36-3.12,3.53c-1.02,1.14-2.04,2.29-3.08,3.44
    	c-1.03,1.17-2.08,2.31-3.17,3.43c-1.08,1.12-2.21,2.21-3.35,3.27c-1.15,1.02-2.35,2-3.6,2.88c-0.36,0.23-0.75,0.49-1.19,0.76
    	c-0.44,0.26-0.9,0.49-1.37,0.66c-0.47,0.17-0.94,0.26-1.43,0.26c-0.48,0.03-0.94-0.1-1.37-0.36c-0.64-0.4-0.95-0.93-0.95-1.61
    	c0-0.67,0.16-1.36,0.47-2.12c0.33-0.74,0.72-1.44,1.18-2.11c0.45-0.66,0.8-1.17,1.07-1.57c0.94-1.38,1.91-2.71,2.89-3.99
    	c0.99-1.29,1.96-2.59,2.92-3.91c0.91-1.18,1.74-2.44,2.45-3.79c0.16-0.27,0.32-0.58,0.45-0.87c0.15-0.3,0.28-0.63,0.43-0.96
    	c0.14-0.34,0.23-0.65,0.27-0.94c0.06-0.29,0.06-0.49,0-0.63c-0.07-0.08-0.27-0.08-0.59,0c-0.31,0.11-0.68,0.26-1.05,0.44
    	c-0.38,0.18-0.72,0.36-1.06,0.57c-0.33,0.2-0.55,0.33-0.66,0.4c-0.69,0.45-1.37,0.91-2.05,1.37c-0.66,0.47-1.32,0.94-1.93,1.44
    	c-0.66,0.52-1.31,1.03-1.93,1.57c-0.61,0.51-1.22,1.08-1.81,1.68c-0.09,0.1-0.17,0.22-0.28,0.37c-0.1,0.14-0.22,0.27-0.35,0.39
    	c-0.11,0.11-0.25,0.2-0.4,0.26c-0.14,0.06-0.29,0.04-0.46-0.03c-0.24-0.12-0.37-0.28-0.41-0.53
    	C65.96,273.72,66.04,273.51,66.22,273.33z"/>
    <path d="M87.74,279.52c0.09-0.06,0.35-0.15,0.73-0.31c0.4-0.16,0.78-0.28,1.16-0.35c0.37-0.07,0.7-0.08,0.96-0.02
    	c0.27,0.06,0.36,0.3,0.29,0.72c-0.05,0.23-0.18,0.47-0.35,0.7c-0.17,0.23-0.29,0.46-0.37,0.7c-0.15,0.34-0.32,0.74-0.45,1.24
    	c-0.16,0.49-0.11,0.9,0.13,1.22c0.46,0.06,0.96,0,1.5-0.16c0.55-0.15,1.06-0.32,1.51-0.47c0.13-0.06,0.37-0.19,0.76-0.39
    	c0.38-0.21,0.77-0.42,1.19-0.62c0.41-0.19,0.79-0.33,1.14-0.42c0.35-0.09,0.56-0.07,0.65,0.09c0.11,0.2,0.04,0.39-0.21,0.58
    	c-0.24,0.22-0.54,0.41-0.9,0.59c-0.36,0.17-0.73,0.32-1.1,0.46c-0.38,0.15-0.62,0.25-0.72,0.29c-0.59,0.29-1.17,0.57-1.79,0.84
    	c-0.61,0.28-1.22,0.46-1.86,0.57c-0.57,0.07-0.97-0.04-1.16-0.37c-0.23-0.31-0.33-0.7-0.33-1.17c0-0.48,0.08-1.01,0.22-1.57
    	c0.14-0.56,0.29-1.07,0.46-1.54c-0.61,0.24-1.22,0.45-1.8,0.65c-0.59,0.19-1.17,0.42-1.72,0.67c-0.48,0.22-0.97,0.45-1.45,0.71
    	c-0.3,0.08-0.54,0-0.71-0.21c-0.17-0.23-0.09-0.4,0.23-0.57L87.74,279.52z M92.42,271.65c0.14-0.34,0.35-0.63,0.63-0.88
    	c0.29-0.25,0.59-0.44,0.96-0.61c0.34-0.15,0.7-0.28,1.09-0.36c0.39-0.1,0.75-0.16,1.11-0.22c0.97-0.05,1.91-0.01,2.85,0.12
    	c0.16,0,0.34,0.03,0.54,0.08c0.2,0.06,0.29,0.2,0.26,0.43c-0.03,0.12-0.1,0.23-0.2,0.32c-0.09,0.09-0.23,0.12-0.36,0.11
    	c-0.77-0.16-1.58-0.23-2.42-0.17c-0.84,0.04-1.6,0.28-2.28,0.71c-0.26,0.17-0.44,0.37-0.55,0.63c-0.11,0.25-0.28,0.46-0.48,0.62
    	c-0.26,0.2-0.55,0.2-0.83,0C92.42,272.22,92.33,271.97,92.42,271.65z"/>
    <path d="M95.92,281.4c0.84-0.36,1.64-0.77,2.41-1.22c0.79-0.44,1.56-0.91,2.33-1.44c0.38-0.72,0.8-1.43,1.25-2.1
    	c0.45-0.68,0.89-1.35,1.32-2c0.46-0.59,0.91-1.19,1.37-1.81c0.46-0.6,0.92-1.21,1.4-1.81c0.4-0.5,0.83-1.04,1.31-1.57
    	c0.46-0.53,1.01-0.97,1.61-1.3c0.31-0.17,0.68-0.27,1.1-0.34c0.43-0.06,0.72,0.11,0.89,0.58c0.1,0.28,0.11,0.55,0.01,0.83
    	c-0.09,0.27-0.23,0.55-0.41,0.82c-0.19,0.27-0.39,0.52-0.6,0.77c-0.22,0.25-0.39,0.46-0.52,0.64c-1.08,1.48-2.28,2.88-3.6,4.16
    	c-1.32,1.29-2.75,2.47-4.27,3.56c-0.14,0.32-0.29,0.65-0.46,1c-0.18,0.34-0.33,0.72-0.47,1.11c-0.12,0.39-0.23,0.77-0.29,1.15
    	c-0.04,0.38-0.04,0.74,0.04,1.08c0.29-0.05,0.57-0.1,0.8-0.13c0.22-0.01,0.41-0.04,0.61-0.06c0.2-0.01,0.3-0.04,0.36-0.05
    	c0.81-0.15,1.59-0.37,2.37-0.63c0.77-0.26,1.53-0.54,2.29-0.85c0.21-0.05,0.46-0.17,0.77-0.33c0.29-0.15,0.55-0.15,0.76-0.03
    	c0.28,0.21,0.34,0.4,0.12,0.56c-0.23,0.17-0.41,0.3-0.61,0.37l-4.66,1.68c-0.45,0.15-0.89,0.33-1.33,0.5
    	c-0.42,0.16-0.86,0.25-1.33,0.28c-0.38,0.05-0.71,0-0.96-0.18c-0.24-0.18-0.41-0.39-0.5-0.67c-0.09-0.27-0.13-0.57-0.1-0.89
    	c0.04-0.31,0.09-0.63,0.16-0.92c0.19-0.61,0.43-1.24,0.73-1.87c-1.1,0.71-2.25,1.35-3.46,1.92c-0.27,0.05-0.49-0.04-0.67-0.25
    	C95.53,281.74,95.61,281.57,95.92,281.4z M104.08,276.07c1.25-1.16,2.41-2.38,3.45-3.7c0.48-0.55,0.93-1.18,1.36-1.88
    	c0.06-0.14,0.14-0.3,0.25-0.5c0.1-0.19,0.19-0.39,0.26-0.6c-0.36,0.18-0.71,0.44-1.05,0.74c-0.33,0.31-0.61,0.56-0.82,0.77
    	c-0.62,0.6-1.2,1.23-1.74,1.9c-0.52,0.66-1.06,1.33-1.6,2.04c-0.29,0.42-0.57,0.82-0.84,1.22c-0.27,0.41-0.53,0.81-0.76,1.23
    	c0.24-0.19,0.49-0.38,0.74-0.6C103.58,276.49,103.84,276.26,104.08,276.07z"/>
    <path d="M107.72,281.4c0.83-0.36,1.63-0.77,2.42-1.22c0.76-0.44,1.55-0.91,2.32-1.44c0.38-0.72,0.78-1.43,1.26-2.1
    	c0.44-0.68,0.88-1.35,1.31-2c0.47-0.59,0.9-1.19,1.37-1.81c0.46-0.6,0.92-1.21,1.41-1.81c0.4-0.5,0.85-1.04,1.3-1.57
    	c0.46-0.53,1.01-0.97,1.63-1.3c0.28-0.17,0.66-0.27,1.09-0.34c0.42-0.06,0.72,0.11,0.87,0.58c0.12,0.28,0.12,0.55,0.02,0.83
    	c-0.1,0.27-0.23,0.55-0.43,0.82c-0.18,0.27-0.37,0.52-0.6,0.77c-0.2,0.25-0.38,0.46-0.52,0.64c-1.07,1.48-2.27,2.88-3.59,4.16
    	c-1.32,1.29-2.75,2.47-4.26,3.56c-0.15,0.32-0.3,0.65-0.48,1c-0.17,0.34-0.32,0.72-0.45,1.11c-0.15,0.39-0.23,0.77-0.29,1.15
    	c-0.06,0.38-0.04,0.74,0.03,1.08c0.29-0.05,0.58-0.1,0.8-0.13c0.21-0.01,0.42-0.04,0.61-0.06c0.18-0.01,0.3-0.04,0.36-0.05
    	c0.79-0.15,1.59-0.37,2.37-0.63c0.78-0.26,1.53-0.54,2.28-0.85c0.22-0.05,0.47-0.17,0.76-0.33c0.29-0.15,0.55-0.15,0.76-0.03
    	c0.29,0.21,0.33,0.4,0.11,0.56c-0.2,0.17-0.4,0.3-0.59,0.37l-4.66,1.68c-0.46,0.15-0.89,0.33-1.32,0.5
    	c-0.43,0.16-0.87,0.25-1.32,0.28c-0.4,0.05-0.73,0-0.97-0.18c-0.23-0.18-0.41-0.39-0.49-0.67c-0.11-0.27-0.13-0.57-0.11-0.89
    	c0.02-0.31,0.07-0.63,0.17-0.92c0.18-0.61,0.41-1.24,0.72-1.87c-1.1,0.71-2.24,1.35-3.45,1.92c-0.27,0.05-0.5-0.04-0.66-0.25
    	C107.33,281.74,107.41,281.57,107.72,281.4z M115.88,276.07c1.26-1.16,2.41-2.38,3.46-3.7c0.48-0.55,0.94-1.18,1.36-1.88
    	c0.05-0.14,0.13-0.3,0.25-0.5c0.1-0.19,0.19-0.39,0.28-0.6c-0.38,0.18-0.74,0.44-1.09,0.74c-0.32,0.31-0.6,0.56-0.81,0.77
    	c-0.61,0.6-1.2,1.23-1.73,1.9c-0.53,0.66-1.07,1.33-1.59,2.04c-0.32,0.42-0.59,0.82-0.86,1.22c-0.26,0.41-0.52,0.81-0.76,1.23
    	c0.25-0.19,0.51-0.38,0.74-0.6C115.39,276.49,115.65,276.26,115.88,276.07z"/>
    <path d="M119.48,281.43c0.33-0.16,0.74-0.35,1.23-0.61c0.49-0.23,1.03-0.48,1.57-0.7c0.57-0.24,1.12-0.46,1.64-0.67
    	c0.52-0.2,0.94-0.38,1.3-0.52c0.18-0.07,0.52-0.19,1-0.35c0.49-0.16,1-0.3,1.52-0.42c0.54-0.13,1.05-0.22,1.51-0.27
    	c0.47-0.06,0.81-0.02,1.02,0.11c0.32,0.29,0.39,0.56,0.18,0.79c-0.2,0.23-0.44,0.38-0.74,0.43l-1.8,0.2
    	c-0.37,0.09-0.69,0.22-0.95,0.36c-0.25,0.14-0.53,0.32-0.87,0.52c-0.13,0.11-0.36,0.33-0.69,0.66
    	c-0.34,0.32-0.67,0.66-0.98,1.04c-0.33,0.38-0.58,0.74-0.78,1.09c-0.18,0.37-0.18,0.61,0,0.76c0.17,0.14,0.44,0.16,0.8,0.08
    	c0.36-0.08,0.73-0.19,1.1-0.35c0.38-0.14,0.73-0.32,1.05-0.49c0.33-0.17,0.54-0.29,0.64-0.37c0.77-0.47,1.41-0.96,1.89-1.48
    	c0.25-0.27,0.5-0.29,0.79-0.11c0.29,0.21,0.36,0.47,0.26,0.8c-0.05,0.2-0.15,0.34-0.28,0.48c-0.15,0.12-0.27,0.25-0.39,0.37
    	c-0.12,0.11-0.22,0.28-0.29,0.49c-0.11,0.19-0.14,0.32-0.08,0.41c0.05,0.09,0.15,0.14,0.29,0.16c0.37,0.05,0.84,0.03,1.4-0.08
    	c0.57-0.1,1.14-0.24,1.74-0.42c0.6-0.18,1.2-0.39,1.79-0.64c0.59-0.25,1.09-0.48,1.53-0.69c0.1-0.02,0.25-0.09,0.44-0.22
    	c0.18-0.11,0.37-0.2,0.57-0.28c0.21-0.08,0.4-0.11,0.59-0.11c0.19,0,0.32,0.07,0.4,0.22c0.11,0.17,0.1,0.31-0.01,0.42
    	c-0.12,0.14-0.3,0.26-0.5,0.34c-0.23,0.09-0.44,0.18-0.65,0.26c-0.21,0.08-0.37,0.14-0.48,0.2c-0.45,0.21-0.91,0.41-1.36,0.62
    	c-0.46,0.18-0.93,0.38-1.41,0.58c-0.32,0.13-0.66,0.29-1.05,0.48c-0.37,0.18-0.76,0.33-1.16,0.46c-0.4,0.14-0.81,0.23-1.23,0.28
    	c-0.41,0.06-0.79,0-1.15-0.12c-0.45-0.18-0.71-0.44-0.81-0.76c-0.07-0.32-0.07-0.66,0.04-1.03l-1.07,0.62
    	c-0.46,0.25-0.93,0.53-1.43,0.8c-0.5,0.28-1,0.44-1.54,0.49c-0.48,0.03-0.91-0.08-1.29-0.32c-0.37-0.23-0.57-0.59-0.6-1.09
    	c0-0.26,0.11-0.59,0.31-1c0.22-0.39,0.5-0.81,0.83-1.24c0.33-0.42,0.7-0.83,1.11-1.18c0.4-0.37,0.77-0.64,1.12-0.82
    	c-0.19,0.05-0.48,0.17-0.9,0.34c-0.41,0.18-0.88,0.4-1.4,0.67c-0.52,0.26-1.07,0.52-1.65,0.8c-0.58,0.26-1.11,0.52-1.59,0.75
    	c-0.12,0.08-0.26,0.1-0.39,0.05c-0.13-0.04-0.24-0.09-0.3-0.18c-0.07-0.09-0.1-0.21-0.1-0.31
    	C119.25,281.61,119.33,281.51,119.48,281.43z"/>
    <path d="M137.2,281.4c0.56-0.29,1.12-0.58,1.66-0.86c0.54-0.29,1.14-0.59,1.78-0.97c-0.05-0.5,0.1-0.97,0.47-1.4
    	c0.35-0.44,0.82-0.65,1.38-0.63c0.38,0.06,0.62,0.24,0.72,0.54c0.1,0.31,0.04,0.61-0.15,0.9c-0.22,0.31-0.51,0.57-0.85,0.78
    	c0.18,0.11,0.41,0.16,0.68,0.16c0.55,0.05,1.15-0.04,1.76-0.29c0.61-0.24,1.16-0.51,1.65-0.8c0.49-0.16,0.79-0.11,0.93,0.15
    	c0.12,0.27,0.08,0.57-0.18,0.94c-0.13,0.21-0.28,0.47-0.44,0.81c-0.19,0.32-0.33,0.64-0.45,0.98c-0.12,0.34-0.19,0.66-0.21,0.98
    	c-0.01,0.3,0.09,0.55,0.3,0.74c0.13,0.14,0.49,0.14,1.06,0c0.59-0.16,1.35-0.42,2.32-0.79c0.33-0.13,0.64-0.29,0.98-0.46
    	c0.33-0.16,0.67-0.32,1.03-0.48c0.07-0.02,0.19-0.09,0.36-0.17c0.16-0.09,0.32-0.15,0.46-0.19c0.14-0.05,0.28-0.05,0.4,0
    	c0.12,0.03,0.18,0.16,0.18,0.41c0,0.13-0.05,0.23-0.18,0.35c-0.12,0.1-0.26,0.19-0.4,0.27c-0.14,0.08-0.31,0.15-0.46,0.21
    	c-0.17,0.04-0.29,0.09-0.36,0.12l-1.68,0.74c-0.3,0.14-0.67,0.34-1.11,0.58c-0.45,0.24-0.88,0.41-1.34,0.58
    	c-0.45,0.17-0.89,0.23-1.31,0.23c-0.43,0-0.77-0.16-1.01-0.5c-0.15-0.18-0.22-0.39-0.24-0.61c-0.02-0.22-0.01-0.44,0.02-0.65
    	c0.05-0.23,0.1-0.45,0.17-0.67c0.06-0.22,0.12-0.43,0.18-0.63l0.32-1.3c-0.14,0.03-0.42,0.09-0.83,0.2
    	c-0.42,0.1-0.88,0.16-1.35,0.21c-0.47,0.05-0.94,0.04-1.38-0.01c-0.43-0.05-0.76-0.23-0.98-0.51c-0.46,0.24-0.83,0.43-1.13,0.59
    	c-0.29,0.16-0.59,0.33-0.9,0.5c-0.31,0.19-0.56,0.33-0.73,0.43c-0.18,0.05-0.36,0.15-0.57,0.29c-0.21,0.14-0.39,0.15-0.56,0.06
    	c-0.16-0.12-0.25-0.25-0.25-0.43C136.95,281.61,137.04,281.47,137.2,281.4z"/>
    <path d="M169.47,274.26c1.13-0.95,2.33-1.82,3.59-2.61c1.28-0.78,2.58-1.49,3.92-2.14c0.7-0.33,1.41-0.66,2.12-0.96
    	c0.72-0.3,1.45-0.58,2.17-0.83l1.51-1.68c0.5-0.49,1.01-0.97,1.55-1.44c0.56-0.47,1.14-0.82,1.79-1.05
    	c0.16-0.05,0.39-0.1,0.7-0.16c0.3-0.05,0.6-0.06,0.88-0.03c0.29,0.02,0.51,0.11,0.69,0.25c0.19,0.14,0.25,0.36,0.13,0.72
    	c-0.05,0.18-0.18,0.31-0.34,0.38c-0.2,0.09-0.4,0.09-0.62,0c-0.23-0.1-0.49-0.13-0.76-0.07c-0.28,0.06-0.54,0.14-0.79,0.27
    	c-0.29,0.14-0.54,0.29-0.78,0.47c-0.24,0.19-0.44,0.34-0.6,0.47c-0.3,0.2-0.56,0.42-0.8,0.66c-0.26,0.23-0.49,0.46-0.73,0.7
    	c0.37-0.1,0.77-0.19,1.17-0.25c0.41-0.07,0.81-0.12,1.24-0.18c0.66-0.08,1.38-0.11,2.13-0.08c0.75,0.02,1.49,0.14,2.21,0.34
    	c0.71,0.19,1.38,0.48,1.98,0.87c0.61,0.39,1.09,0.91,1.43,1.56c0.32,0.61,0.47,1.23,0.44,1.9c-0.02,0.67-0.16,1.32-0.39,1.98
    	c-0.22,0.66-0.52,1.3-0.88,1.89c-0.36,0.61-0.73,1.14-1.1,1.64c-1.78,2.34-3.91,4.33-6.44,5.97c-2.53,1.63-5.22,2.82-8.05,3.58
    	c-1.18,0.28-2.35,0.51-3.49,0.7c0.05,0.32,0.12,0.59,0.23,0.85c0.11,0.25,0.29,0.46,0.52,0.68c0.22,0.18,0.3,0.37,0.29,0.54
    	c-0.02,0.19-0.12,0.34-0.29,0.44c-0.15,0.1-0.36,0.15-0.58,0.13c-0.23-0.02-0.43-0.13-0.62-0.37c-0.24-0.31-0.42-0.64-0.54-1.01
    	c-0.13-0.36-0.21-0.74-0.27-1.13c-0.74,0.05-1.51,0.08-2.27,0.1c-0.77,0-1.53-0.01-2.3-0.06c-0.2,0-0.46-0.01-0.82-0.02
    	c-0.37-0.03-0.74-0.07-1.1-0.13c-0.36-0.06-0.67-0.18-0.9-0.32c-0.24-0.16-0.34-0.38-0.27-0.67c0.02-0.2,0.12-0.37,0.3-0.46
    	c0.17-0.1,0.37-0.13,0.59-0.08c0.43,0.13,0.85,0.25,1.27,0.31c0.44,0.07,0.88,0.14,1.33,0.19c0.67,0.1,1.34,0.17,2.04,0.17
    	c0.69,0.02,1.4,0,2.09-0.05c0.05-0.88,0.22-1.76,0.5-2.65c0.28-0.88,0.55-1.67,0.82-2.38c0.54-1.4,1.14-2.77,1.82-4.07
    	c0.69-1.31,1.42-2.6,2.2-3.87c0.39-0.72,0.82-1.41,1.28-2.08c0.44-0.66,0.93-1.34,1.4-2.02c-1.39,0.52-2.66,1.08-3.85,1.71
    	c-1.18,0.62-2.29,1.32-3.33,2.11c-0.24,0.17-0.49,0.36-0.71,0.56c-0.22,0.19-0.45,0.4-0.65,0.59c-0.22,0.19-0.44,0.4-0.63,0.66
    	c-0.2,0.27-0.42,0.47-0.67,0.59c-0.18,0.1-0.36,0.14-0.53,0.09c-0.16-0.06-0.29-0.16-0.39-0.3c-0.1-0.15-0.16-0.3-0.15-0.47
    	C169.22,274.54,169.31,274.39,169.47,274.26z M181.8,268.6c-1.12,1.42-2.1,2.75-2.95,4.01c-0.85,1.28-1.61,2.57-2.3,3.87
    	c-0.69,1.35-1.34,2.76-1.93,4.22c-0.59,1.46-0.99,2.94-1.2,4.48c-0.03,0.14-0.06,0.27-0.07,0.42c0,0.16-0.02,0.34-0.02,0.55
    	c1.69-0.2,3.36-0.56,4.98-1.1c1.63-0.54,3.19-1.25,4.66-2.14c1.12-0.67,2.2-1.43,3.22-2.26c1.04-0.83,1.97-1.74,2.83-2.73
    	c0.38-0.44,0.76-0.92,1.15-1.45c0.39-0.52,0.73-1.06,1.04-1.62c0.31-0.56,0.56-1.14,0.76-1.73c0.2-0.6,0.3-1.2,0.3-1.78
    	c0-0.58-0.14-1.08-0.44-1.47c-0.29-0.41-0.66-0.74-1.1-1.01c-0.48-0.27-0.97-0.48-1.5-0.63c-0.55-0.14-1.03-0.24-1.53-0.29
    	c-1.01-0.05-2.01-0.02-2.99,0.1C183.72,268.16,182.76,268.36,181.8,268.6z"/>
    <path d="M196.25,277.23c0.62-0.45,1.19-0.93,1.74-1.45c0.55-0.55,1.01-1.15,1.39-1.82c0.14-0.26,0.26-0.57,0.38-0.92
    	c0.11-0.35,0.37-0.53,0.74-0.53c0.27,0.03,0.47,0.15,0.59,0.37c0.11,0.21,0.1,0.45-0.03,0.68c-0.21,0.6-0.58,1.16-1.13,1.69
    	c-0.52,0.54-1.03,0.98-1.48,1.34c-0.24,0.21-0.51,0.45-0.79,0.74c-0.28,0.28-0.57,0.49-0.86,0.62c-0.14,0.1-0.27,0.15-0.38,0.11
    	c-0.12-0.02-0.22-0.09-0.28-0.18c-0.07-0.11-0.1-0.23-0.1-0.36C196.05,277.42,196.12,277.31,196.25,277.23z"/>
    <path d="M198.22,283.77c0.93-0.43,1.91-0.8,2.91-1.11c1.03-0.3,2.06-0.56,3.06-0.8l1.01-1.52c0.88-1.21,1.79-2.4,2.7-3.55
    	c0.89-1.14,1.86-2.29,2.85-3.42c0.96-1.1,1.97-2.18,2.98-3.23c1.03-1.05,2.13-2.03,3.27-2.94c0.56-0.44,1.14-0.85,1.73-1.25
    	c0.59-0.38,1.19-0.73,1.81-1.05c0.17-0.08,0.43-0.2,0.79-0.35c0.36-0.16,0.72-0.26,1.11-0.37c0.37-0.08,0.71-0.12,1.04-0.09
    	c0.31,0.03,0.53,0.19,0.65,0.46c0.03,0.19,0.02,0.38-0.08,0.56c-0.1,0.2-0.17,0.37-0.21,0.53l-0.93,1.83l-0.75,1.53
    	c-0.54,1.02-1.06,2.02-1.56,3.04c-0.48,1.01-0.99,2.05-1.47,3.12c-0.42,0.94-0.84,1.86-1.24,2.81c-0.41,0.94-0.77,1.9-1.12,2.89
    	c0.21,0,0.42,0,0.62,0.04c0.21,0.02,0.38,0.06,0.55,0.11c0.32,0.13,0.48,0.36,0.46,0.67c0,0.33-0.19,0.54-0.5,0.65
    	c-0.24,0.06-0.49,0.07-0.75,0.03c-0.27-0.02-0.55-0.06-0.85-0.12l-0.16,0.83c-0.16,0.53-0.32,1.11-0.47,1.73
    	c-0.15,0.6-0.27,1.21-0.34,1.83c-0.1,0.6-0.16,1.21-0.19,1.81c-0.04,0.59,0,1.17,0.12,1.71c0.75-0.73,1.45-1.42,2.11-2.1
    	c0.68-0.68,1.42-1.32,2.22-1.92c1.19-0.91,2.44-1.75,3.71-2.54c1.28-0.77,2.58-1.51,3.91-2.21c0.15-0.09,0.26-0.1,0.39-0.05
    	c0.09,0.03,0.19,0.1,0.25,0.22c0.07,0.09,0.09,0.2,0.09,0.31c-0.02,0.11-0.1,0.22-0.23,0.29l-1.65,0.86
    	c-0.69,0.4-1.39,0.79-2.08,1.19c-0.67,0.4-1.33,0.84-1.97,1.3c-2.07,1.46-3.92,3.17-5.57,5.15c-0.15,0.21-0.29,0.39-0.44,0.54
    	c-0.14,0.16-0.37,0.25-0.66,0.32c-0.38,0.04-0.68,0-0.89-0.16c-0.21-0.16-0.36-0.36-0.5-0.62c-0.12-0.27-0.2-0.55-0.21-0.87
    	c-0.03-0.31-0.03-0.59,0-0.86c0.02-1.15,0.2-2.3,0.52-3.47c0.32-1.17,0.67-2.3,1.03-3.4c-0.44-0.01-0.91-0.03-1.35-0.06
    	c-0.46-0.02-0.92-0.02-1.38-0.02c-0.94-0.05-1.91-0.05-2.88,0c-0.96,0.06-1.9,0.14-2.85,0.27l-1.85,0.28l-0.55,1.01
    	c-0.32,0.6-0.65,1.22-1.01,1.87c-0.34,0.64-0.55,1.32-0.64,2c-0.03,0.21-0.07,0.41-0.13,0.62c-0.08,0.21-0.25,0.33-0.54,0.35
    	c-0.24,0-0.45-0.07-0.59-0.23c-0.15-0.15-0.2-0.33-0.19-0.54c0.03-0.65,0.21-1.29,0.55-1.91c0.33-0.63,0.65-1.21,0.95-1.76
    	c0.1-0.2,0.21-0.38,0.31-0.53c0.1-0.16,0.23-0.35,0.37-0.55c-0.37,0.08-0.73,0.16-1.08,0.25c-0.32,0.1-0.67,0.2-1.05,0.33
    	c-0.48,0.14-0.94,0.29-1.38,0.47c-0.44,0.18-0.89,0.39-1.35,0.58c-0.14,0.07-0.26,0.09-0.38,0.04
    	c-0.11-0.06-0.19-0.13-0.24-0.23c-0.04-0.11-0.04-0.23,0-0.33C197.99,283.95,198.08,283.85,198.22,283.77z M215.8,280.77
    	c0.7-1.8,1.42-3.54,2.18-5.26c0.77-1.72,1.53-3.45,2.31-5.18c0.37-0.78,0.73-1.58,1.08-2.36c0.36-0.8,0.69-1.62,1.03-2.45
    	c-0.62,0.11-1.24,0.32-1.86,0.62c-0.61,0.29-1.2,0.64-1.76,1.03c-0.58,0.38-1.09,0.8-1.6,1.22c-0.5,0.41-0.95,0.81-1.38,1.16
    	c-2.25,2-4.34,4.2-6.26,6.62c-1.37,1.77-2.67,3.57-3.9,5.39l3.34-0.47c0.98-0.09,1.98-0.14,2.98-0.19
    	c0.98-0.05,1.97-0.04,2.99,0.02h0.81C215.76,280.86,215.78,280.8,215.8,280.77z"/>
    <path d="M227.19,281.4c0.58-0.29,1.13-0.58,1.68-0.86c0.55-0.29,1.15-0.59,1.79-0.97c-0.04-0.5,0.11-0.97,0.46-1.4
    	c0.36-0.44,0.82-0.65,1.39-0.63c0.37,0.06,0.61,0.24,0.71,0.54c0.11,0.31,0.06,0.61-0.16,0.9c-0.21,0.31-0.49,0.57-0.84,0.78
    	c0.2,0.11,0.42,0.16,0.68,0.16c0.55,0.05,1.16-0.04,1.76-0.29c0.62-0.24,1.16-0.51,1.66-0.8c0.47-0.16,0.78-0.11,0.91,0.15
    	c0.15,0.27,0.08,0.57-0.15,0.94c-0.15,0.21-0.29,0.47-0.47,0.81c-0.16,0.32-0.3,0.64-0.43,0.98c-0.11,0.34-0.18,0.66-0.2,0.98
    	c-0.01,0.3,0.08,0.55,0.31,0.74c0.12,0.14,0.5,0.14,1.05,0c0.58-0.16,1.35-0.42,2.3-0.79c0.34-0.13,0.65-0.29,0.99-0.46
    	c0.33-0.16,0.68-0.32,1.03-0.48c0.08-0.02,0.2-0.09,0.36-0.17c0.15-0.09,0.31-0.15,0.46-0.19c0.16-0.05,0.28-0.05,0.4,0
    	c0.11,0.03,0.18,0.16,0.18,0.41c0,0.13-0.06,0.23-0.18,0.35c-0.12,0.1-0.24,0.19-0.4,0.27c-0.15,0.08-0.31,0.15-0.46,0.21
    	c-0.16,0.04-0.28,0.09-0.36,0.12l-1.69,0.74c-0.29,0.14-0.66,0.34-1.11,0.58c-0.45,0.24-0.88,0.41-1.34,0.58
    	c-0.46,0.17-0.9,0.23-1.32,0.23c-0.44,0-0.77-0.16-1.01-0.5c-0.13-0.18-0.22-0.39-0.24-0.61c-0.02-0.22-0.02-0.44,0.03-0.65
    	c0.03-0.23,0.08-0.45,0.15-0.67c0.07-0.22,0.14-0.43,0.18-0.63l0.32-1.3c-0.12,0.03-0.4,0.09-0.83,0.2
    	c-0.41,0.1-0.85,0.16-1.35,0.21c-0.47,0.05-0.93,0.04-1.39-0.01c-0.43-0.05-0.75-0.23-0.97-0.51c-0.47,0.24-0.83,0.43-1.13,0.59
    	c-0.29,0.16-0.58,0.33-0.9,0.5c-0.31,0.19-0.55,0.33-0.75,0.43c-0.15,0.05-0.34,0.15-0.55,0.29c-0.21,0.14-0.41,0.15-0.58,0.06
    	c-0.15-0.12-0.23-0.25-0.23-0.43C226.96,281.61,227.04,281.47,227.19,281.4z"/>
    <path d="M242.46,281.4c0.47-0.24,0.98-0.5,1.5-0.78c0.51-0.29,1.04-0.54,1.57-0.74c0.34-0.6,0.85-1.08,1.49-1.46
    	c0.65-0.37,1.34-0.63,2.06-0.77c0.36-0.04,0.81-0.04,1.29,0c0.5,0.06,0.89,0.25,1.15,0.59c0.19,0.21,0.24,0.43,0.13,0.67
    	c-0.07,0.24-0.24,0.46-0.48,0.67c-0.23,0.21-0.49,0.38-0.76,0.56c-0.28,0.16-0.49,0.3-0.63,0.37c-0.48,0.28-1.01,0.51-1.58,0.64
    	c-0.57,0.14-1.15,0.2-1.75,0.14h-0.16c0.12,0.58,0.36,1.02,0.72,1.33c0.37,0.31,0.82,0.54,1.34,0.68
    	c0.5,0.15,1.03,0.21,1.59,0.18c0.54-0.03,1.05-0.09,1.5-0.16c0.64-0.13,1.28-0.28,1.87-0.49c0.63-0.18,1.24-0.42,1.82-0.68
    	c0.26-0.13,0.54-0.26,0.83-0.37c0.28-0.11,0.56-0.25,0.77-0.37c0.19-0.05,0.39-0.04,0.6,0.07c0.19,0.11,0.21,0.29,0.07,0.52
    	c-0.14,0.2-0.33,0.35-0.57,0.43c-0.25,0.06-0.46,0.16-0.65,0.23l-2,0.86c-1.22,0.46-2.45,0.86-3.65,1.15
    	c-0.53,0.11-1.09,0.15-1.61,0.1c-0.56-0.03-1.06-0.16-1.53-0.35c-0.49-0.2-0.89-0.48-1.27-0.85c-0.37-0.36-0.65-0.83-0.8-1.4
    	c-0.06-0.2-0.11-0.41-0.15-0.61c-0.03-0.22-0.03-0.42,0.02-0.59c-0.29,0.13-0.58,0.27-0.87,0.45c-0.27,0.16-0.52,0.32-0.74,0.45
    	c-0.13,0.05-0.3,0.15-0.52,0.29c-0.2,0.14-0.41,0.14-0.64,0.01c-0.16-0.11-0.23-0.24-0.22-0.42
    	C242.21,281.57,242.29,281.45,242.46,281.4z M246.54,280.3c0.64-0.01,1.27-0.18,1.87-0.46c0.6-0.3,1.12-0.65,1.59-1.1
    	c-0.38-0.12-0.76-0.17-1.1-0.11c-0.37,0.05-0.72,0.16-1.02,0.3c-0.3,0.17-0.58,0.36-0.81,0.61
    	C246.84,279.79,246.66,280.05,246.54,280.3z M249.56,269.55c0.08,0.13,0.23,0.28,0.46,0.43c0.22,0.16,0.49,0.29,0.77,0.44
    	c0.27,0.14,0.57,0.28,0.86,0.41c0.28,0.13,0.54,0.24,0.75,0.33c0.37,0.12,0.78,0.22,1.21,0.3c0.43,0.08,0.77,0.23,1.08,0.43
    	c0.21,0.05,0.35,0.16,0.39,0.3c0.03,0.17-0.02,0.31-0.15,0.43c-0.12,0.19-0.3,0.25-0.51,0.16c-0.22-0.07-0.41-0.15-0.57-0.2
    	c-0.83-0.26-1.68-0.52-2.55-0.77c-0.87-0.26-1.66-0.63-2.4-1.1c-0.12-0.1-0.27-0.22-0.41-0.35c-0.15-0.13-0.26-0.29-0.31-0.52
    	c-0.02-0.17,0.02-0.33,0.11-0.45c0.12-0.12,0.24-0.19,0.41-0.23c0.16-0.03,0.32-0.03,0.49,0.02
    	C249.34,269.25,249.49,269.37,249.56,269.55z"/>
    <path d="M256.55,281.43c0.3-0.16,0.79-0.42,1.53-0.8c0.71-0.38,1.46-0.73,2.23-1.07c0.76-0.35,1.46-0.58,2.1-0.7
    	c0.65-0.13,1.04-0.02,1.21,0.31c0.1,0.26,0.08,0.52-0.1,0.77c-0.18,0.24-0.31,0.47-0.38,0.68l-0.49,1.09
    	c0.35-0.21,0.69-0.39,1.05-0.54c0.36-0.15,0.7-0.31,1.05-0.46c0.85-0.45,1.73-0.92,2.64-1.42c0.91-0.48,1.84-0.87,2.78-1.12
    	c0.35-0.09,0.65-0.09,0.91-0.02c0.27,0.06,0.48,0.18,0.63,0.34c0.14,0.17,0.22,0.39,0.22,0.67c0,0.27-0.11,0.56-0.33,0.88
    	c-0.23,0.36-0.51,0.68-0.78,0.97c-0.27,0.28-0.57,0.6-0.85,0.93c-0.05,0.07-0.14,0.2-0.28,0.31c-0.14,0.14-0.28,0.28-0.42,0.46
    	c-0.13,0.16-0.28,0.33-0.41,0.5c-0.12,0.17-0.19,0.32-0.22,0.45c0.2,0.06,0.41,0.06,0.71,0c0.28-0.06,0.55-0.13,0.83-0.2
    	c0.29-0.1,0.56-0.21,0.81-0.3c0.26-0.1,0.46-0.19,0.59-0.24l1.64-0.7c0.1-0.05,0.24-0.14,0.42-0.23c0.16-0.1,0.35-0.2,0.54-0.3
    	c0.18-0.09,0.36-0.17,0.55-0.25c0.17-0.07,0.3-0.12,0.4-0.12c0.26,0,0.37,0.12,0.37,0.35c0,0.24-0.1,0.41-0.32,0.55
    	c-0.24,0.13-0.5,0.26-0.76,0.37c-0.27,0.12-0.55,0.23-0.84,0.37c-0.37,0.21-0.74,0.39-1.09,0.55c-0.34,0.15-0.7,0.32-1.09,0.5
    	c-0.2,0.1-0.55,0.25-1.02,0.45c-0.47,0.19-0.93,0.34-1.4,0.42c-0.48,0.1-0.87,0.09-1.23-0.04c-0.34-0.11-0.53-0.43-0.53-0.96
    	c0-0.25,0.08-0.49,0.21-0.69c0.13-0.22,0.29-0.41,0.46-0.61c0.17-0.2,0.35-0.38,0.57-0.58c0.19-0.18,0.38-0.34,0.53-0.5
    	c0.17-0.12,0.44-0.4,0.82-0.81c0.36-0.42,0.6-0.82,0.72-1.18c-0.72,0.08-1.46,0.26-2.18,0.55c-0.74,0.28-1.41,0.59-2.04,0.9
    	c-0.78,0.36-1.58,0.76-2.41,1.21c-0.82,0.46-1.55,1.01-2.16,1.63c-0.14,0.09-0.29,0.16-0.43,0.17
    	c-0.14,0.03-0.28-0.01-0.41-0.07c-0.14-0.06-0.24-0.17-0.31-0.3c-0.07-0.12-0.07-0.3-0.02-0.49c0.07-0.24,0.28-0.45,0.6-0.64
    	c0.13-0.2,0.27-0.43,0.41-0.71c0.15-0.27,0.23-0.43,0.27-0.49c0.05-0.18,0.12-0.37,0.17-0.55c0.05-0.21,0.09-0.39,0.11-0.6
    	c-0.29,0.07-0.58,0.17-0.88,0.27c-0.29,0.1-0.52,0.18-0.68,0.23c-0.37,0.15-0.75,0.32-1.12,0.45c-0.37,0.13-0.74,0.3-1.12,0.5
    	c-0.21,0.09-0.4,0.2-0.58,0.3c-0.18,0.11-0.37,0.18-0.58,0.27c-0.16,0.08-0.31,0.09-0.46,0.05c-0.15-0.03-0.26-0.09-0.34-0.18
    	c-0.09-0.07-0.11-0.17-0.1-0.27C256.25,281.61,256.36,281.51,256.55,281.43z"/>
    <path d="M274.93,281.4c0.48-0.24,0.99-0.5,1.5-0.78c0.53-0.29,1.04-0.54,1.59-0.74c0.34-0.6,0.84-1.08,1.48-1.46
    	c0.63-0.37,1.33-0.63,2.05-0.77c0.37-0.04,0.82-0.04,1.3,0c0.5,0.06,0.89,0.25,1.15,0.59c0.19,0.21,0.23,0.43,0.14,0.67
    	c-0.1,0.24-0.26,0.46-0.49,0.67c-0.23,0.21-0.47,0.38-0.76,0.56c-0.28,0.16-0.49,0.3-0.63,0.37c-0.48,0.28-0.99,0.51-1.58,0.64
    	c-0.57,0.14-1.16,0.2-1.75,0.14h-0.15c0.1,0.58,0.34,1.02,0.72,1.33c0.36,0.31,0.81,0.54,1.33,0.68
    	c0.51,0.15,1.03,0.21,1.57,0.18c0.57-0.03,1.06-0.09,1.52-0.16c0.63-0.13,1.28-0.28,1.9-0.49c0.61-0.18,1.22-0.42,1.79-0.68
    	c0.28-0.13,0.55-0.26,0.83-0.37c0.28-0.11,0.54-0.25,0.78-0.37c0.2-0.05,0.39-0.04,0.6,0.07c0.2,0.11,0.21,0.29,0.06,0.52
    	c-0.15,0.2-0.32,0.35-0.57,0.43c-0.23,0.06-0.45,0.16-0.64,0.23l-2.01,0.86c-1.22,0.46-2.44,0.86-3.65,1.15
    	c-0.54,0.11-1.07,0.15-1.63,0.1c-0.55-0.03-1.05-0.16-1.53-0.35c-0.47-0.2-0.89-0.48-1.27-0.85c-0.36-0.36-0.63-0.83-0.8-1.4
    	c-0.05-0.2-0.1-0.41-0.14-0.61c-0.04-0.22-0.04-0.42,0.02-0.59c-0.29,0.13-0.58,0.27-0.87,0.45c-0.28,0.16-0.53,0.32-0.76,0.45
    	c-0.12,0.05-0.29,0.15-0.51,0.29c-0.21,0.14-0.42,0.14-0.63,0.01c-0.17-0.11-0.24-0.24-0.23-0.42
    	C274.68,281.57,274.77,281.45,274.93,281.4z M279.03,280.3c0.64-0.01,1.26-0.18,1.85-0.46c0.61-0.3,1.14-0.65,1.6-1.1
    	c-0.39-0.12-0.75-0.17-1.11-0.11c-0.36,0.05-0.69,0.16-1.01,0.3c-0.31,0.17-0.59,0.36-0.82,0.61
    	C279.31,279.79,279.13,280.05,279.03,280.3z"/>
  </g>

</svg>
